<svg width="609" height="135" viewBox="0 0 609 135" fill="none" xmlns="http://www.w3.org/2000/svg">
<path d="M24 103.451C40.7265 111.093 52.5965 110.029 71.7554 109.849C181.65 108.818 291.555 102.371 401.418 98.2629C462.512 95.9785 523.979 97.5598 585 91" stroke="#375FDC" stroke-width="43" stroke-linecap="round"/>
<path d="M29.12 105H12.44V40.92H27.8V50.04C32.48 43.56 38.48 39.72 47 39.72C55.76 39.72 62.48 43.8 65.72 51.12C70.76 44.04 77.24 39.72 86.84 39.72C99.8 39.72 108.56 48.24 108.56 63.6V105H92V68.88C92 59.88 88.16 54.48 80.84 54.48C74.24 54.48 68.84 59.64 68.84 69.24V105H52.28V68.88C52.28 59.88 48.44 54.48 41.12 54.48C34.4 54.48 29.12 59.64 29.12 69.24V105ZM178.207 40.92L147.007 128.16H128.887L138.007 104.28L112.807 40.92H130.807L146.887 84.84L161.527 40.92H178.207ZM263.164 105L251.044 63.36L239.044 105H222.364L204.124 40.92H220.324L231.244 81.48L243.004 40.92H259.444L270.844 81.48L281.644 40.92H298.084L279.724 105H263.164ZM333.143 106.2C314.543 106.2 300.623 91.56 300.623 72.96C300.623 54.24 314.543 39.72 333.143 39.72C351.743 39.72 365.663 54.24 365.663 72.96C365.663 91.56 351.743 106.2 333.143 106.2ZM333.143 91.44C341.423 91.44 348.503 84.84 348.503 72.96C348.503 61.08 341.423 54.6 333.143 54.6C324.863 54.6 317.783 61.08 317.783 72.96C317.783 84.84 324.863 91.44 333.143 91.44ZM392.987 73.92V105H376.307V40.92H391.667V53.28C396.347 45.12 406.307 40.2 416.627 40.2V57.48C402.467 56.4 392.987 59.76 392.987 73.92ZM441.972 105H425.292V18.84H441.972V68.04L465.372 40.92H484.572L458.052 71.64L487.692 105H466.452L441.972 75.24V105Z" fill="#151515"/>
</svg>
